<svg width="3865" height="3930" viewBox="0 0 3865 3930" fill="none" xmlns="http://www.w3.org/2000/svg">
<g id="Creator">
<g clip-path="url(#clip0_220_1404)">
<rect width="3865" height="3930" rx="96" fill="#FFFBF5"/>
<g id="Cute Avatar">
<g id="Background">
<path id="background2" d="M1931.19 5669.13C-316.944 5669.13 -2135.96 3909.16 -2135.96 1739.83C-2135.96 -432.102 -314.245 -2189.46 1931.19 -2189.46C4179.32 -2189.46 5998.34 -429.495 5998.34 1739.83C6001.04 3911.76 4179.32 5669.13 1931.19 5669.13Z" fill="#D85656" fill-opacity="0.69"/>
</g>
<g id="Face">
<g id="Cute_Face_3_">
<path id="Vector" d="M2879.18 3213.45C2871.29 3219.27 2862.27 3225.08 2854.39 3230.9C2845.37 3236.71 2837.48 3242.53 2828.46 3247.18C2820.58 3251.83 2813.81 3256.49 2805.92 3261.14C2804.8 3262.3 2803.67 3262.3 2802.54 3263.46C2776.62 3279.75 2749.57 3294.86 2722.53 3308.82C2714.64 3313.47 2705.62 3318.12 2697.73 3321.61C2697.73 3321.61 2696.61 3322.78 2695.48 3322.78C2686.46 3327.43 2677.45 3332.08 2668.43 3336.73C2650.4 3346.04 2631.24 3354.18 2613.21 3362.32C2604.19 3366.97 2594.05 3370.46 2585.03 3373.95C2576.02 3377.44 2565.87 3382.09 2556.86 3385.58C2547.84 3389.07 2537.7 3393.72 2528.68 3397.21C2528.68 3397.21 2528.68 3397.21 2527.56 3397.21C2518.54 3400.7 2508.4 3404.19 2499.38 3407.68C2479.09 3414.65 2457.68 3421.63 2437.4 3428.61C2430.63 3430.94 2422.74 3433.26 2415.98 3435.59C2394.57 3442.57 2373.16 3448.38 2351.74 3453.03C2343.85 3455.36 2335.97 3456.52 2326.95 3458.85C2306.66 3463.5 2285.25 3468.15 2264.96 3472.8C2260.46 3473.97 2257.08 3473.97 2252.57 3475.13C2245.81 3476.29 2237.92 3477.46 2231.15 3478.62C2221.01 3479.78 2212 3482.11 2201.85 3483.27C2197.34 3484.43 2192.84 3484.43 2188.33 3485.6C2182.69 3486.76 2175.93 3487.92 2169.17 3487.92C2151.14 3490.25 2131.98 3492.57 2113.95 3494.9C2108.31 3496.06 2101.55 3496.06 2095.92 3497.23H2094.79C2086.9 3498.39 2079.01 3498.39 2071.12 3499.55C2063.23 3500.72 2055.34 3500.72 2047.45 3500.72C2042.95 3500.72 2037.31 3501.88 2032.8 3501.88C2023.79 3501.88 2015.9 3503.04 2008.01 3503.04C1996.74 3503.04 1986.6 3504.2 1975.33 3504.2C1964.06 3504.2 1953.91 3504.2 1942.64 3504.2C1934.75 3504.2 1926.87 3504.2 1918.98 3504.2C1444.51 3497.23 1016.25 3289.05 711.96 2958.76C711.96 2958.76 711.96 2957.59 710.833 2957.59C745.77 2886.65 875.374 2758.72 1010.61 2652.89C1181.92 2519.14 1424.22 2436.57 1424.22 2436.57C1424.22 2436.57 1583.13 2409.82 2172.55 2536.59C2622.22 2634.28 2813.81 3030.86 2879.18 3213.45Z" fill="#F7CDB5"/>
<path id="Vector_2" d="M2297.65 2858.74C2273.98 2978.53 2120.71 3049.47 1862.63 2942.48C1545.94 2809.89 1424.22 2436.57 1424.22 2436.57C1407.32 2169.08 1367.87 1939.97 1367.87 1939.97C1734.15 1907.41 2166.92 2349.35 2166.92 2349.35L2216.5 2567.99C2221.01 2586.6 2230.03 2602.88 2243.55 2614.51C2267.22 2656.38 2313.43 2781.98 2297.65 2858.74Z" fill="#F7CDB5"/>
<path id="Vector_3" d="M2243.55 2615.67C2028.3 2604.04 1869.39 2571.48 1699.21 2256.31C1843.47 2387.72 2013.64 2437.73 2192.84 2460.99L2216.5 2567.99C2221.01 2587.76 2230.03 2604.04 2243.55 2615.67Z" fill="#EFBDA5"/>
<path id="Vector_4" d="M2688.72 1214.26C2709 1311.95 2719.15 1391.03 2663.92 1651.55C2608.7 1912.06 2714.64 2172.57 2448.67 2410.98C2269.47 2571.48 1956.17 2601.72 1705.97 2426.1C1621.45 2366.79 1543.69 2284.22 1480.57 2176.06C1430.99 2091.16 1373.51 2010.91 1309.27 1937.64C1220.24 1837.63 1113.17 1636.43 1166.14 1280.55C1251.79 701.374 1807.4 635.083 2135.36 699.048C2463.32 763.013 2633.49 956.071 2688.72 1214.26Z" fill="#F7CDB5"/>
<path id="Vector_5" d="M1610.18 1668.99C1610.18 1668.99 1575.24 1494.54 1410.7 1515.47C1268.7 1534.08 1219.11 1885.31 1541.43 1983" fill="#F7CDB5"/>
<path id="Vector_6" d="M1531.29 1823.67C1531.29 1823.67 1490.72 1796.92 1495.23 1750.4C1501.99 1695.74 1495.23 1662.01 1470.43 1651.55C1408.45 1624.8 1396.05 1699.23 1398.3 1708.53" stroke="#423232" stroke-width="13" stroke-miterlimit="10" stroke-linecap="round" stroke-linejoin="round"/>
<path id="Vector_7" d="M2391.19 1936.48C2391.19 1936.48 2434.01 1938.81 2474.59 1888.8C2497.13 1860.88 2516.29 1825.99 2503.89 1815.53C2491.49 1803.9 2287.5 1836.46 2273.98 1864.37C2260.46 1892.29 2339.35 1936.48 2391.19 1936.48Z" fill="#EFBDA5"/>
<path id="Vector_8" d="M2425 1545.71C2425 1545.71 2427.25 1656.2 2496 1779.47C2526.43 1834.14 2480.22 1923.69 2379.92 1938.81" stroke="#423232" stroke-width="13" stroke-miterlimit="10" stroke-linecap="round" stroke-linejoin="round"/>
</g>
</g>
<g id="Outfit">
<path id="Vector_9" d="M2993.05 2999.48C2833.02 2786.65 2585.08 2698.27 2448.71 2645.93C2437.44 2587.78 2416.03 2523.82 2382.22 2462.18C2330.37 2494.74 2270.64 2519.16 2208.66 2531.96L2217.67 2570.34C2222.18 2588.94 2244.72 2675.01 2209.78 2785.49C2180.48 2878.53 2062.15 2920.4 1861.54 2826.2C1470.47 2643.61 1425.39 2437.75 1425.39 2437.75C1418.63 2326.11 1407.36 2221.44 1397.22 2136.54C1275.5 2164.45 1134.63 2221.44 1057.99 2341.23C963.323 2487.76 928.386 2636.63 937.402 2755.25C772.86 2863.41 518.158 3027.4 434.76 3320.47C326.568 3701.94 344.6 3935.7 344.6 3935.7H3256.77C3253.39 3936.86 3210.56 3289.07 2993.05 2999.48Z" fill="#7D6553"/>
<path id="Vector_10" d="M1251.83 2618.02C1251.83 2618.02 1320.58 2893.65 1621.49 3084.38" stroke="#423232" stroke-width="13" stroke-miterlimit="10" stroke-linecap="round" stroke-linejoin="round"/>
<path id="Vector_11" d="M2447.58 2645.93C2447.58 2645.93 2527.6 3002.97 2352.91 3166.96" stroke="#423232" stroke-width="13" stroke-miterlimit="10" stroke-linecap="round" stroke-linejoin="round"/>
<path id="Vector_12" d="M1904.37 3112.29C1904.37 3112.29 1845.76 3289.07 1861.54 3411.19" stroke="#423232" stroke-width="13" stroke-miterlimit="10" stroke-linecap="round" stroke-linejoin="round"/>
<path id="Vector_13" d="M2263.88 3101.83C2263.88 3101.83 2307.84 3200.68 2339.39 3357.69" stroke="#423232" stroke-width="13" stroke-miterlimit="10" stroke-linecap="round" stroke-linejoin="round"/>
<path id="Vector_14" d="M935.149 2756.42C935.149 2756.42 1027.56 3144.86 1577.54 3258.83" stroke="#423232" stroke-width="13" stroke-miterlimit="10" stroke-linecap="round" stroke-linejoin="round"/>
<path id="Vector_15" d="M1871.69 3437.93L1822.1 3433.28C1804.07 3430.96 1790.54 3413.51 1793.92 3394.9L1810.83 3307.68C1815.34 3283.26 1837.88 3265.81 1861.54 3269.3C1885.21 3271.63 1904.37 3292.56 1904.37 3318.15L1905.5 3407.7C1905.5 3425.14 1889.72 3440.26 1871.69 3437.93Z" fill="white"/>
<path id="Vector_16" d="M2388.98 3384.44L2341.65 3401.88C2323.61 3408.86 2304.45 3397.23 2301.07 3378.62L2280.79 3292.56C2275.15 3268.14 2287.55 3243.71 2311.22 3234.41C2333.76 3226.27 2359.68 3236.73 2369.82 3258.83L2407.01 3339.08C2414.9 3356.52 2407.01 3377.46 2388.98 3384.44Z" fill="white"/>
<path id="Vector_17" d="M896.83 3936.86C896.83 3936.86 886.687 3677.51 852.877 3607.73" stroke="#544D4D" stroke-width="13" stroke-miterlimit="10" stroke-linecap="round" stroke-linejoin="round"/>
<path id="Vector_18" d="M2885.98 3357.69C2885.98 3357.69 2949.1 3722.87 2924.3 3936.86" stroke="#544D4D" stroke-width="13" stroke-miterlimit="10" stroke-linecap="round" stroke-linejoin="round"/>
<path id="Vector_19" d="M2704.54 3708.91C2704.54 3708.91 2537.74 3734.5 2391.23 3727.52" stroke="#544D4D" stroke-width="13" stroke-miterlimit="10" stroke-linecap="round" stroke-linejoin="round"/>
</g>
<g id="Eyes">
<path id="Vector_20" d="M2020.78 1662.48C1993.73 1661.32 1973.44 1638.06 1975.7 1610.15L1976.82 1577.58C1977.95 1549.67 2000.49 1528.74 2027.54 1531.06C2054.59 1532.22 2074.87 1555.48 2072.62 1583.4L2071.49 1615.96C2070.36 1642.71 2047.82 1663.64 2020.78 1662.48Z" fill="#423232"/>
<path id="Vector_21" d="M2495.24 1679.92C2470.45 1678.76 2451.29 1656.66 2452.42 1631.08L2453.54 1600.84C2454.67 1575.25 2476.08 1555.48 2500.88 1556.65C2525.67 1557.81 2544.83 1579.91 2543.7 1605.49L2542.58 1635.73C2541.45 1661.32 2520.04 1681.09 2495.24 1679.92Z" fill="#423232"/>
<path id="Vector_22" d="M2130.1 1595.03C2130.1 1595.03 2100.79 1551.99 2050.08 1543.85C2008.38 1536.88 1962.17 1557.81 1955.41 1582.23" stroke="#423232" stroke-width="13" stroke-miterlimit="10" stroke-linecap="round" stroke-linejoin="round"/>
<path id="Vector_23" d="M2462.56 1605.49C2462.56 1605.49 2462.56 1568.28 2514.4 1568.28C2557.23 1568.28 2575.26 1608.98 2575.26 1608.98" stroke="#423232" stroke-width="13" stroke-miterlimit="10" stroke-linecap="round" stroke-linejoin="round"/>
<path id="Vector_24" d="M2176.3 1407.78C2199.97 1415.92 2223.64 1393.83 2219.13 1367.08C2216.87 1353.12 2211.24 1339.17 2199.97 1328.7C2166.16 1297.3 2026.41 1269.39 1941.89 1310.09C1867.5 1347.31 2068.11 1370.57 2176.3 1407.78Z" fill="#423232"/>
<path id="Vector_25" d="M2513.27 1426.39C2494.11 1433.37 2473.83 1412.43 2477.21 1388.01C2478.33 1375.22 2482.84 1362.43 2491.86 1353.12C2518.91 1325.21 2611.32 1303.11 2669.92 1346.14C2720.64 1382.2 2601.18 1392.66 2513.27 1426.39Z" fill="#423232"/>
</g>
<g id="Mouth">
<path id="Vector_26" d="M2136.27 2024.83C2111.57 2039.56 2067.81 2023.53 2047.44 1998.83" stroke="#423232" stroke-width="13" stroke-miterlimit="10" stroke-linecap="round" stroke-linejoin="round"/>
</g>
<g id="Hair">
<path id="Vector_27" d="M2705.58 1195.18C2702.19 1177.73 2697.69 1159.13 2692.05 1141.68C2686.42 1124.24 2672.89 1109.12 2654.86 1105.63C2596.26 1095.16 2539.91 990.492 2458.76 978.862C2200.68 942.809 2028.25 964.906 1785.94 1062.6C1535.75 1162.62 1803.98 1524.31 1624.78 1642.93C1615.77 1610.37 1571.81 1477.79 1427.56 1496.4C1291.19 1513.84 1239.35 1839.48 1521.1 1951.13C1398.26 2158.14 1407.27 2075.57 1317.11 1963.92C1226.95 1852.27 1046.63 1562.69 1168.35 1139.36C1290.06 716.024 1841.17 495.054 2353.95 710.209C2441.86 747.425 2494.83 839.302 2571.46 854.421C3284.85 995.144 2722.48 1278.92 2705.58 1195.18Z" fill="#5A493D"/>
<path id="Vector_28" d="M2012.47 975.372C2012.47 975.372 1916.68 946.297 1859.2 1100.98C1801.72 1255.66 1601.12 1468.48 1434.32 1220.77C1267.52 974.209 1517.72 776.499 1778.05 856.746C2038.39 936.993 2009.09 876.517 2012.47 975.372Z" fill="#5A493D"/>
<path id="Vector_29" d="M2178.14 862.562C2178.14 862.562 2431.72 1028.87 2598.51 963.743C2703.32 923.038 2821.66 773.011 2739.39 661.363C2641.34 527.618 2338.17 628.799 2169.12 572.975C1915.55 489.239 1522.23 433.415 1337.4 747.425C1291.19 826.509 1249.49 906.756 1184.13 969.558C1116.51 1034.69 1048.89 1140.52 1043.25 1305.67C1033.11 1634.79 1283.3 1920.89 1283.3 1920.89C1283.3 1920.89 1134.54 1358 1415.16 1274.26C1695.78 1190.53 1773.55 900.941 1959.5 900.941C2145.46 900.941 2058.68 684.623 2178.14 862.562Z" fill="#5A493D"/>
<path id="Vector_30" d="M2424.95 1010.26C2424.95 1010.26 2628.94 1273.1 2782.21 1257.98C2935.49 1242.86 3107.92 903.267 2686.42 786.967C2264.92 670.667 2424.95 1010.26 2424.95 1010.26Z" fill="#5A493D"/>
<path id="Vector_31" d="M2012.47 975.372C2012.47 975.372 2146.58 1317.29 2502.72 1358C2859.98 1399.87 3004.23 725.327 2458.76 661.362C1913.3 597.397 2012.47 975.372 2012.47 975.372Z" fill="#5A493D"/>
<path id="Vector_32" d="M1727.34 814.879C1727.34 814.879 1810.74 1205.65 1986.55 1223.09C2162.36 1240.54 2115.03 735.795 1885.12 700.905C1655.21 666.015 1727.34 814.879 1727.34 814.879Z" fill="#5A493D"/>
</g>
<g id="Accessories">
<path id="Vector_33" d="M2190.58 1795.67H1927.99C1859.24 1795.67 1804.02 1738.69 1804.02 1667.74V1557.26C1804.02 1486.31 1859.24 1429.33 1927.99 1429.33H2190.58C2259.33 1429.33 2314.55 1486.31 2314.55 1557.26V1667.74C2314.55 1738.69 2258.2 1795.67 2190.58 1795.67Z" stroke="#324233" stroke-width="13" stroke-miterlimit="10" stroke-linecap="round" stroke-linejoin="round"/>
<path id="Vector_34" d="M2643.63 1429.33H2514.03C2468.95 1429.33 2431.76 1467.71 2431.76 1514.23V1615.41C2447.54 1673.56 2470.08 1729.38 2503.89 1779.39C2507.27 1779.39 2510.65 1780.55 2514.03 1780.55H2643.63C2688.71 1780.55 2725.9 1742.17 2725.9 1695.65V1514.23C2727.03 1466.54 2689.84 1429.33 2643.63 1429.33Z" stroke="#324233" stroke-width="13" stroke-miterlimit="10" stroke-linecap="round" stroke-linejoin="round"/>
<path id="Vector_35" d="M2314.55 1535.16C2352.87 1530.51 2401.33 1527.02 2441.9 1531.67" stroke="#324233" stroke-width="13" stroke-miterlimit="10" stroke-linecap="round" stroke-linejoin="round"/>
<path id="Vector_36" d="M1804.02 1543.3L1542.56 1552.61" stroke="#324233" stroke-width="13" stroke-miterlimit="10" stroke-linecap="round" stroke-linejoin="round"/>
</g>
</g>
</g>
</g>
<defs>
<clipPath id="clip0_220_1404">
<rect width="3865" height="3930" rx="96" fill="white"/>
</clipPath>
</defs>
</svg>
