<?xml version="1.0" standalone="no"?>
<!DOCTYPE svg PUBLIC "-//W3C//DTD SVG 20010904//EN"
 "http://www.w3.org/TR/2001/REC-SVG-20010904/DTD/svg10.dtd">
<svg version="1.0" xmlns="http://www.w3.org/2000/svg"
 width="500.000000pt" height="500.000000pt" viewBox="0 0 500.000000 500.000000"
 preserveAspectRatio="xMidYMid meet">

<g transform="translate(0.000000,500.000000) scale(0.100000,-0.100000)"
fill="#000000" stroke="none">
<path d="M2340 4755 l0 -165 35 0 34 0 3 107 3 108 78 -108 c73 -100 80 -107
113 -107 l34 0 0 165 0 165 -35 0 -34 0 -3 -106 -3 -106 -75 106 c-72 101 -76
105 -112 106 l-38 0 0 -165z"/>
<path d="M2766 4881 c-3 -14 -13 -68 -21 -119 -16 -91 -15 -95 5 -137 34 -70
112 -95 177 -55 48 29 59 54 81 178 l19 112 -23 6 c-13 3 -30 4 -37 1 -7 -2
-20 -49 -30 -108 -13 -80 -22 -108 -38 -121 -27 -23 -52 -23 -72 0 -20 22 -21
69 -2 172 7 41 11 78 9 81 -2 4 -17 9 -33 11 -26 4 -31 1 -35 -21z"/>
<path d="M2038 4883 c-25 -4 -28 -10 -53 -121 -15 -64 -33 -142 -40 -172 -8
-30 -12 -56 -10 -58 2 -3 19 -2 38 2 29 5 35 12 43 44 9 36 10 37 74 49 65 12
65 12 87 -15 13 -15 23 -29 23 -32 0 -4 16 -4 35 -2 19 2 35 8 35 13 0 19
-183 299 -194 298 -6 -1 -23 -4 -38 -6z m68 -156 c16 -30 15 -31 -39 -40 -26
-4 -28 -2 -22 20 3 14 9 39 12 56 6 28 7 29 20 11 8 -10 21 -31 29 -47z"/>
<path d="M3141 4807 c-23 -59 -93 -288 -90 -291 9 -7 165 -56 180 -56 14 0 28
26 29 51 0 3 -27 14 -60 24 -62 19 -67 26 -51 68 l10 25 55 -16 c31 -8 58 -13
60 -11 2 2 6 16 9 30 6 24 3 27 -48 43 -57 18 -62 24 -45 56 10 18 12 18 71
-2 33 -11 62 -19 64 -17 2 2 6 16 10 30 6 26 4 28 -77 54 -46 16 -89 30 -95
32 -7 3 -17 -6 -22 -20z"/>
<path d="M1719 4809 c-22 -8 -30 -22 -49 -92 -13 -45 -26 -85 -29 -89 -3 -4
-40 15 -83 42 -70 46 -78 49 -108 39 -17 -6 -29 -16 -27 -23 2 -6 28 -75 57
-154 52 -140 54 -143 79 -137 14 4 30 10 34 14 4 4 -8 49 -28 100 -19 51 -35
95 -35 97 0 2 24 -12 54 -32 51 -33 56 -35 82 -22 22 10 31 26 44 73 l17 60
15 -35 c8 -19 25 -63 38 -98 22 -60 25 -63 49 -57 14 4 29 10 33 13 7 7 -103
313 -112 311 -3 0 -17 -5 -31 -10z"/>
<path d="M3390 4579 c-36 -78 -67 -145 -68 -150 -5 -12 168 -91 183 -85 7 2
15 14 18 25 4 18 -4 26 -54 51 l-58 30 35 78 c20 42 44 96 55 119 l18 43 -29
15 c-16 8 -30 15 -32 15 -2 0 -32 -64 -68 -141z"/>
<path d="M1098 4517 l-27 -22 60 -83 c32 -45 59 -84 59 -86 0 -3 -53 13 -117
35 -64 21 -122 39 -129 39 -6 0 -22 -8 -35 -18 l-22 -19 88 -124 c48 -68 92
-128 96 -133 11 -13 62 23 55 39 -3 8 -28 45 -55 83 -28 39 -51 72 -51 75 0 2
55 -13 121 -34 85 -27 127 -35 138 -29 45 26 46 23 -49 156 -51 71 -95 132
-99 136 -3 3 -18 -3 -33 -15z"/>
<path d="M3886 4428 c-8 -29 -29 -106 -46 -171 l-33 -117 29 -23 c16 -12 33
-21 39 -19 5 2 76 40 157 84 121 67 146 84 136 95 -31 38 -45 36 -157 -27 -59
-33 -110 -60 -113 -60 -3 0 11 56 30 124 l36 125 -25 20 c-13 11 -27 20 -31
21 -4 0 -13 -24 -22 -52z"/>
<path d="M666 4161 l-26 -27 67 -160 c36 -87 68 -161 70 -163 2 -3 15 7 29 21
25 24 25 28 13 62 -13 36 -13 36 36 86 l48 49 35 -15 c33 -13 37 -13 59 8 12
12 23 25 23 29 0 6 -73 37 -281 119 l-46 19 -27 -28z m124 -87 c22 -9 40 -19
40 -22 0 -8 -42 -52 -51 -52 -6 0 -39 72 -39 85 0 8 7 6 50 -11z"/>
<path d="M4242 4160 c-12 -10 -20 -25 -16 -33 6 -17 -134 -150 -152 -143 -7 3
-20 -4 -30 -15 -17 -19 -17 -21 24 -61 41 -41 41 -42 62 -23 14 12 17 22 10
29 -13 13 137 152 160 148 9 -1 22 4 29 12 15 18 5 39 -36 78 -27 26 -28 26
-51 8z"/>
<path d="M4290 3904 c-69 -53 -126 -97 -127 -98 -1 -1 26 -38 61 -83 61 -79
64 -81 85 -67 28 20 27 30 -14 80 -19 23 -35 46 -35 51 1 4 46 42 100 83 55
41 100 80 100 86 0 10 -31 44 -41 44 -2 0 -60 -43 -129 -96z"/>
<path d="M450 3913 l-22 -28 23 -15 c130 -86 164 -117 167 -150 4 -38 -16 -60
-53 -60 -12 0 -60 27 -108 60 -47 33 -90 60 -95 60 -5 0 -15 -12 -23 -26 -15
-29 -19 -25 114 -116 55 -38 78 -48 111 -48 47 0 99 28 117 62 17 33 15 102
-4 132 -13 20 -134 113 -194 149 -6 4 -20 -4 -33 -20z"/>
<path d="M4490 3620 c-85 -11 -159 -19 -163 -19 -5 -1 0 -15 11 -33 18 -28 26
-32 59 -30 37 3 39 1 71 -58 l33 -60 -21 -31 c-19 -26 -21 -34 -10 -59 7 -17
16 -30 20 -30 8 0 186 217 210 256 10 17 10 26 -4 52 -10 18 -24 32 -34 31 -9
-1 -87 -9 -172 -19z m93 -100 c-15 -22 -31 -40 -35 -40 -7 0 -38 53 -38 64 0
5 38 12 78 15 l23 1 -28 -40z"/>
<path d="M245 3590 c-18 -35 -27 -27 120 -104 68 -35 80 -45 80 -66 0 -16 -8
-28 -22 -35 -31 -13 -33 -65 -2 -65 50 0 98 47 99 97 0 63 -17 80 -141 143
l-118 60 -16 -30z"/>
<path d="M1276 2834 c-9 -23 -8 -24 19 -24 13 0 28 -8 34 -17 8 -16 -33 -178
-159 -624 -18 -65 -51 -104 -92 -107 -29 -3 -38 1 -43 17 -3 11 -1 30 5 42 29
52 -36 109 -96 84 -50 -21 -67 -81 -39 -135 25 -49 87 -74 180 -74 126 0 200
46 247 151 14 32 178 609 178 627 0 15 36 36 61 36 16 0 29 2 29 4 0 2 3 11 6
20 5 14 -13 16 -159 16 -141 0 -166 -2 -171 -16z"/>
<path d="M2037 2843 c-18 -18 -4 -32 36 -35 38 -3 42 -6 45 -31 3 -27 -183
-587 -219 -659 -18 -36 -62 -68 -92 -68 -13 0 -27 -20 -27 -36 0 -3 64 -3 142
-2 127 3 143 5 146 21 3 13 -3 17 -26 17 -34 0 -62 27 -62 61 1 25 178 552
180 534 1 -5 18 -149 38 -320 l38 -310 29 -3 c30 -2 32 2 190 304 88 168 165
312 171 321 10 14 -37 -499 -50 -553 -4 -15 -16 -26 -34 -30 -47 -10 -52 -13
-52 -29 0 -13 21 -15 162 -13 146 3 163 5 166 21 3 12 -3 17 -21 17 -52 0 -52
5 -17 368 18 185 38 348 44 362 6 13 22 27 36 30 14 3 26 14 28 23 3 16 -7 17
-110 15 l-113 -3 -150 -282 c-145 -273 -150 -281 -156 -245 -4 20 -17 148 -30
285 l-23 247 -131 0 c-73 0 -135 -3 -138 -7z"/>
<path d="M3306 2834 c-9 -23 -8 -24 18 -24 32 0 72 -34 81 -67 4 -16 21 -185
39 -378 l31 -350 50 0 49 0 226 364 c219 352 277 431 319 431 10 0 21 9 24 20
5 19 0 20 -143 20 -126 0 -149 -2 -154 -16 -9 -24 -9 -24 28 -24 37 0 66 -21
66 -49 0 -17 -38 -85 -215 -389 -68 -115 -91 -149 -97 -135 -10 26 -51 540
-45 557 3 8 21 16 39 18 22 2 34 9 36 21 3 16 -10 17 -171 17 -150 0 -176 -2
-181 -16z"/>
<path d="M0 2425 c0 -13 27 -15 179 -15 99 0 186 3 195 6 44 17 -13 24 -185
24 -161 0 -189 -2 -189 -15z"/>
<path d="M4552 2423 c-41 -16 24 -23 224 -23 203 0 255 6 208 24 -19 7 -413 7
-432 -1z"/>
<path d="M402 1724 c4 -24 -150 -84 -163 -63 -14 23 -12 -13 4 -50 12 -29 32
-35 21 -6 -6 14 50 40 65 30 15 -9 14 -42 -1 -48 -7 -2 -11 -7 -8 -10 3 -3 21
2 40 10 24 10 30 17 20 21 -32 11 -40 47 -12 55 9 2 25 8 34 12 25 10 44 -30
27 -61 -16 -30 -9 -38 18 -19 l21 15 -26 65 c-23 59 -47 88 -40 49z"/>
<path d="M4535 1683 c-21 -21 -58 -104 -50 -112 3 -3 10 0 14 8 7 10 25 6 85
-19 44 -18 76 -38 76 -46 0 -25 16 -15 28 19 16 44 15 49 -5 36 -22 -13 -77 5
-70 24 2 6 27 15 57 19 50 6 70 18 70 46 0 6 -4 12 -10 12 -5 0 -10 -4 -10
-10 0 -5 -14 -10 -31 -10 -17 0 -39 -5 -50 -10 -16 -9 -19 -7 -19 8 0 22 -30
52 -53 52 -8 0 -23 -8 -32 -17z m53 -25 c13 -13 16 -54 4 -62 -8 -5 -72 20
-72 29 0 4 5 15 10 26 12 21 40 25 58 7z"/>
<path d="M510 1483 c0 -11 -25 -32 -65 -56 -75 -44 -87 -69 -58 -119 31 -54
64 -58 138 -19 36 19 70 31 79 28 20 -8 20 -4 -1 36 -16 29 -18 30 -21 11 -3
-22 -103 -84 -134 -84 -21 0 -48 33 -48 58 0 34 112 108 145 96 13 -5 12 1 -6
30 -24 40 -29 44 -29 19z"/>
<path d="M4381 1395 c-34 -61 -38 -73 -17 -55 12 9 29 3 85 -30 39 -22 71 -47
71 -55 0 -29 15 -14 49 47 32 58 33 62 15 75 -26 19 -36 16 -22 -6 9 -14 9
-26 -1 -49 l-13 -31 -34 16 c-19 9 -34 20 -34 24 0 19 14 39 27 39 18 0 8 17
-19 31 -19 10 -20 9 -16 -9 3 -12 1 -28 -6 -37 -10 -13 -15 -13 -44 5 -32 20
-32 21 -16 45 9 14 25 25 35 25 11 0 19 5 19 10 0 6 -11 10 -24 10 -19 0 -31
-12 -55 -55z"/>
<path d="M680 1202 c0 -28 -117 -114 -143 -106 -16 5 -14 -2 13 -40 54 -75 63
-80 91 -57 l24 20 -31 1 c-27 0 -76 34 -63 43 109 85 131 98 151 91 l21 -6
-22 31 c-29 40 -41 47 -41 23z"/>
<path d="M4268 1208 c-8 -7 -28 -31 -44 -52 -23 -32 -25 -38 -11 -33 24 9 145
-77 149 -106 3 -18 7 -16 31 17 28 36 28 37 5 31 -13 -3 -32 2 -43 10 -16 13
-18 19 -7 35 39 63 -25 142 -80 98z m62 -32 c15 -19 9 -60 -10 -63 -8 -1 -28
8 -44 22 -25 20 -28 26 -17 39 17 20 55 21 71 2z"/>
<path d="M854 993 c10 -25 -101 -135 -129 -127 -13 4 -1 -14 34 -49 52 -54 55
-55 77 -40 33 21 30 34 -6 26 -22 -4 -36 0 -51 13 -19 18 -19 18 38 76 38 39
64 57 76 54 23 -6 21 4 -8 37 -27 31 -40 35 -31 10z"/>
<path d="M4078 984 c-77 -41 -60 -153 29 -190 28 -12 38 -12 67 0 32 13 66 58
66 86 0 28 -36 84 -64 101 -37 23 -62 23 -98 3z m98 -48 c43 -43 46 -87 9
-112 -32 -21 -65 -13 -104 27 -35 34 -40 72 -14 101 26 29 70 23 109 -16z"/>
<path d="M3816 749 c-28 -22 -35 -42 -12 -33 20 8 118 -119 109 -142 -6 -16
-3 -15 23 4 86 62 90 68 75 96 -18 33 -33 34 -25 1 6 -24 -17 -65 -36 -65 -3
0 -30 30 -59 66 -43 53 -50 68 -41 80 18 21 -3 17 -34 -7z"/>
<path d="M975 731 c-9 -15 47 -62 59 -50 5 5 8 10 5 11 -2 2 -16 13 -30 26
-17 15 -29 20 -34 13z"/>
<path d="M1186 664 c-23 -22 -20 -49 9 -93 26 -39 25 -65 -1 -75 -20 -8 -64
37 -64 66 0 19 -2 20 -14 8 -18 -18 -24 -34 -13 -37 4 -2 18 -14 30 -29 27
-31 68 -35 97 -9 26 24 25 39 -5 91 -28 48 -24 74 11 74 25 0 49 -33 40 -55
-10 -26 11 -25 23 1 10 22 8 28 -16 49 -32 28 -75 32 -97 9z"/>
<path d="M3605 608 c-34 -22 -45 -33 -33 -36 24 -5 100 -136 91 -158 -5 -15 3
-13 43 11 88 51 83 46 71 72 -12 28 -31 31 -22 4 4 -13 -3 -26 -22 -41 -26
-20 -28 -21 -41 -3 -31 41 -33 52 -13 63 11 5 27 7 37 3 16 -6 16 -4 -2 25
-18 32 -41 45 -31 18 6 -15 -10 -36 -28 -36 -6 0 -19 13 -28 30 -17 29 -17 29
7 45 19 13 29 14 45 5 23 -12 28 -1 9 18 -18 18 -28 15 -83 -20z"/>
<path d="M1410 539 c-13 -24 -5 -38 12 -21 14 14 45 16 53 3 3 -6 -9 -41 -26
-80 -26 -58 -36 -70 -58 -73 -25 -3 -24 -5 17 -26 24 -13 47 -21 50 -17 4 3 0
10 -8 15 -12 7 -9 21 20 80 19 40 38 74 43 77 14 8 37 -18 37 -43 0 -13 4 -24
9 -24 8 0 20 32 21 52 0 9 -134 78 -149 78 -6 0 -15 -9 -21 -21z"/>
<path d="M3427 514 c-24 -13 -26 -17 -14 -27 9 -8 17 -39 21 -87 l6 -75 -55
58 c-45 47 -54 62 -44 73 14 17 5 18 -38 2 -33 -12 -45 -28 -20 -28 7 0 44
-32 82 -70 38 -39 74 -69 80 -67 6 2 10 50 10 120 0 64 0 117 0 117 0 -1 -13
-8 -28 -16z"/>
<path d="M1710 342 c-34 -42 -69 -80 -78 -83 -14 -6 -11 -9 11 -18 40 -16 52
-14 37 5 -11 12 -11 18 2 31 13 13 22 13 52 3 28 -9 36 -17 36 -36 0 -16 -6
-24 -17 -24 -24 0 -5 -15 35 -28 30 -10 45 -1 22 13 -6 3 -10 50 -10 105 0
130 -10 133 -90 32z m57 -48 c-2 -3 -16 0 -31 6 l-27 10 28 37 28 37 3 -43 c2
-24 1 -45 -1 -47z"/>
<path d="M3083 383 c-49 -14 -71 -33 -40 -33 21 0 62 -147 46 -166 -16 -19 -3
-18 71 4 54 15 60 20 60 45 0 15 -4 27 -10 27 -5 0 -10 -9 -10 -20 0 -18 -33
-40 -60 -40 -8 0 -30 53 -30 73 0 5 15 7 35 4 39 -6 38 -7 25 28 l-10 25 -20
-20 c-28 -28 -38 -25 -46 16 -10 51 11 63 70 39 16 -7 17 -6 7 13 -14 25 -18
26 -88 5z"/>
<path d="M1995 318 c-23 -20 -29 -35 -33 -81 -4 -50 -2 -58 21 -81 30 -30 91
-35 123 -11 17 13 14 14 -32 8 -48 -5 -53 -4 -69 21 -21 32 -16 98 11 127 27
30 72 25 92 -11 22 -39 32 -38 32 4 0 26 -4 35 -17 35 -10 1 -36 4 -59 7 -34
5 -46 2 -69 -18z"/>
<path d="M2740 311 c-22 -6 -23 -8 -8 -17 23 -12 49 -165 30 -172 -26 -8 -10
-21 21 -16 70 12 117 35 133 66 20 39 13 93 -17 124 -19 20 -32 24 -78 23 -31
-1 -67 -4 -81 -8z m127 -25 c23 -20 28 -32 28 -70 0 -52 -16 -73 -61 -82 l-31
-6 -12 82 c-10 68 -10 84 1 91 22 15 46 10 75 -15z"/>
<path d="M2270 301 c0 -5 6 -11 12 -13 19 -7 11 -159 -8 -174 -12 -10 -7 -13
26 -16 22 -2 40 0 40 4 0 5 -4 8 -10 8 -13 0 -13 67 0 75 6 3 18 -8 28 -25 33
-61 46 -72 77 -68 l30 4 -25 11 c-14 6 -38 33 -53 61 l-27 50 45 33 c24 19 45
37 45 42 0 4 -17 7 -37 7 -29 0 -34 -3 -25 -12 9 -9 5 -19 -20 -45 -18 -18
-36 -33 -40 -33 -14 0 -9 58 7 73 12 13 12 16 -8 21 -32 9 -57 7 -57 -3z"/>
</g>
</svg>
