<?xml version="1.0" standalone="no"?>
<!DOCTYPE svg PUBLIC "-//W3C//DTD SVG 20010904//EN"
 "http://www.w3.org/TR/2001/REC-SVG-20010904/DTD/svg10.dtd">
<svg version="1.0" xmlns="http://www.w3.org/2000/svg"
 width="500.000000pt" height="500.000000pt" viewBox="0 0 500.000000 500.000000"
 preserveAspectRatio="xMidYMid meet">

<g transform="translate(0.000000,500.000000) scale(0.100000,-0.100000)"
fill="#000000" stroke="none">
<path d="M245 3764 c-13 -14 -34 -53 -47 -87 -22 -61 -23 -71 -24 -447 0 -278
-4 -400 -14 -440 -19 -81 -64 -164 -115 -212 -25 -24 -45 -50 -45 -60 0 -9 20
-35 44 -58 53 -50 90 -117 112 -201 14 -54 17 -124 18 -444 1 -343 3 -386 20
-443 12 -40 31 -77 52 -99 30 -31 36 -34 71 -27 21 4 42 9 46 11 4 3 -10 24
-32 48 -73 79 -90 200 -91 625 0 275 -10 346 -61 446 -17 34 -48 79 -70 100
l-38 37 39 43 c51 56 94 142 114 231 12 56 16 128 16 320 0 422 20 553 96 628
32 32 33 35 15 45 -35 18 -80 12 -106 -16z"/>
<path d="M4675 3753 c-48 -10 -48 -13 -7 -57 74 -80 91 -199 92 -626 0 -333
23 -430 124 -538 l46 -49 -35 -33 c-19 -18 -50 -63 -69 -100 -56 -106 -66
-176 -66 -453 -1 -428 -20 -558 -97 -632 -33 -32 -34 -34 -14 -44 30 -17 73
-13 100 9 13 11 35 51 50 88 l26 67 1 385 c1 411 4 446 52 549 14 29 47 75 74
101 26 26 48 54 48 63 0 9 -20 34 -44 57 -51 48 -89 114 -112 196 -14 51 -16
109 -15 414 2 282 -1 370 -13 426 -17 83 -46 146 -78 168 -23 16 -28 17 -63 9z"/>
<path d="M840 3181 c0 -5 -3 -16 -6 -25 -5 -12 1 -16 25 -16 21 0 35 -7 46
-23 14 -22 7 -51 -100 -440 -108 -393 -143 -496 -178 -526 -9 -6 -30 -14 -49
-17 -26 -5 -38 -1 -52 15 -17 19 -18 25 -6 60 24 74 -12 131 -85 131 -53 0
-79 -20 -100 -73 -29 -77 4 -145 95 -193 28 -15 57 -19 150 -19 99 0 122 3
167 24 66 29 127 95 163 174 15 34 75 238 134 452 117 428 120 435 192 435 19
0 34 4 34 9 0 5 3 16 6 25 5 14 -17 16 -215 16 -128 0 -221 -4 -221 -9z"/>
<path d="M1850 3181 c0 -5 -3 -16 -6 -25 -5 -13 2 -16 40 -16 58 0 91 -28 81
-68 -15 -60 -277 -817 -295 -852 -24 -47 -70 -86 -112 -95 -34 -8 -48 -20 -48
-42 0 -10 44 -13 185 -13 183 0 186 0 194 23 8 20 5 23 -30 28 -45 6 -89 43
-89 74 0 24 227 705 239 718 4 4 29 -183 57 -415 l49 -423 39 0 39 0 226 427
c124 234 227 425 228 424 3 -3 -64 -672 -73 -730 -8 -50 -35 -76 -79 -76 -19
0 -35 -4 -35 -9 0 -5 -3 -16 -6 -25 -5 -14 17 -16 215 -16 l221 0 0 25 c0 21
-5 25 -30 25 -21 0 -35 8 -46 25 -16 24 -14 51 25 453 23 235 45 445 48 466 7
46 34 76 68 76 14 0 25 4 25 9 0 5 3 17 6 25 6 15 -9 16 -145 14 l-152 -3
-201 -377 c-111 -208 -203 -376 -204 -375 -3 3 -74 717 -74 741 0 14 -24 16
-180 16 -103 0 -180 -4 -180 -9z"/>
<path d="M3547 3183 c-20 -19 -5 -41 31 -47 39 -6 69 -31 92 -75 10 -19 53
-450 100 -988 0 -2 29 -3 63 -3 l64 0 298 483 c302 487 360 568 420 583 31 7
45 20 45 42 0 9 -45 12 -194 12 -168 0 -195 -2 -200 -16 -11 -29 -6 -34 33
-34 72 0 104 -56 71 -122 -29 -55 -393 -678 -396 -675 -6 6 -65 711 -62 750 3
42 3 42 47 47 34 4 46 10 52 28 l8 22 -233 0 c-128 0 -236 -3 -239 -7z"/>
</g>
</svg>
